<svg id="Capa_1" data-name="Capa 1" xmlns="http://www.w3.org/2000/svg" viewBox="0 0 674.61448 372.4862">
  <defs>
    <style>
      .cls-1 {
        fill: #febd76;
      }

      .cls-2 {
        fill: #55c4f2;
      }

      .cls-2, .cls-3 {
        fill-opacity: 0.99216;
      }

      .cls-3 {
        fill: #ffbc75;
      }

      .cls-4 {
        fill: #54c3f2;
      }
    </style>
  </defs>
  <title>LogoTransparenteAxul-01</title>
  <g id="g4626">
    <path id="path266-1-0-0-3-4-2" class="cls-1" d="M121.55849,128.83612c-6.52789-1.481-10.61763-1.09016-10.55785-2.82743,0.1172-2.15957,15.50447-.19925,21.54236-4.22273,4.12489-2.75,6.41069-5.86413,8.0529-12.29418,2.38891-9.59875,2.76166-15.56269,4.2691-15.49114,1.4617,0.07029,1.552,6.72589,3.13561,15.92989,2.97736,9.63434,5.92539,11.28433,13.3758,13.5437,9.43138,0.80416,16.35312.51816,16.43047,3.4098,0.1172,2.42446-5.40142,1.29227-18.871,4.40982-7.32028,1.69363-7.91459,6.77167-9.42905,16.92883-1.47225,9.88832-1.53673,15.38365-3.39111,15.3307-2.42173-.07029-1.99975-2.75714-2.99257-13.00193-1.1253-11.65815-10.09719-19.97286-21.56463-21.71514Z" transform="translate(-111 -94)"/>
    <path id="path1082-2-5-2-7" class="cls-2" d="M218.63632,241.91734c0-115.23274-1.36909-97.42642.56265-101.42307,3.27275-6.76076-.7619-25.01727,7.15971-21.182,6.72834,3.25741,6.631,2.54126,6.631,48.78967v40.69693l2.53075-2.33735c6.62519-6.11883,21.996-14.25181,31.98185-16.92274,7.71181-2.06244,24.624-2.76376,33.21733-1.37723,16.57347,2.67361,31.0312,6.36816,43.42939,18.91418,10.78638,10.91624,15.95108,19.31733,19.504,33.802,3.07346,12.53564,4.59968,13.6317,4.61023,68.35527,0,48.81561-.11724,51.68919-1.71841,54.37425-2.18613,3.58491-7.02843,5.90831-12.31493,5.90831-5.038,0-8.489-2.45487-10.89428-7.7504-1.58949-3.49977-1.70553-7.02888-1.72426-52.15494,0-45.17186-.15239-48.87606-1.84151-55.51932a64.33615,64.33615,0,0,0-4.371-11.88155c-5.61359-10.48018-19.10073-29.18545-46.94826-29.66873-27.84752-.48418-40.5458-7.22473-52.134,5.8729-0.1172,59.83577-19.25545,157.43264-17.68237,23.50375h0.00215Zm248.5836,125.90251c-21.24814-5.48423-44.3964-22.063-54.4584-39.00455-14.59487-24.57406-18.23567-48.22608-11.30106-73.422,4.95132-17.99215,19.78058-38.32685,36.177-49.60814,6.67679-4.59351,20.62221-10.947,28.66219-13.0581,10.43358-2.73943,27.05047-3.34541,37.54031-1.36846,34.93806,6.58333,63.28027,33.77073,72.16187,69.2231,2.42294,9.6753,2.17325,30.475-.49231,41.2895-7.49141,30.34679-32.18584,55.25764-64.56145,65.12665-8.80657,2.68506-34.62631,3.17067-43.72362.82294Zm35.89461-26.3784c20.46517-4.29678,40.07459-23.34993,45.6952-44.39918,2.44521-9.157,2.67138-24.79692.4806-33.16331-4.55979-17.4046-17.34834-32.60849-34.21135-40.67064-10.11127-4.835-15.66741-6.01134-28.07025-5.94265-15.66034.0821-25.61574,3.27387-36.71862,11.75617-10.01165,7.649-20.7594,23.91531-23.50813,35.57865-1.81919,7.72-1.82161,23.552-.00349,31.28814,5.25726,22.36977,27.01765,42.48,50.10609,46.30548,5.51509,0.91308,20.31627.4899,26.22995-.75247v-0.00018Zm173.55454,27.07382c-20.80394-4.08143-46.7935-21.662-57.56-38.93569A109.40981,109.40981,0,0,1,606.0216,299.679c-3.31966-12.74724-3.33137-30.82346,0-43.42421a95.22614,95.22614,0,0,1,14.60426-30.46931c6.27936-8.514,19.8075-21.13778,27.41267-25.57979,33.79755-19.73819,71.2394-17.232,103.34314,6.91745l7.61688,5.72945,0.45717-43.91715,0.45717-43.91715,2.55539-3.34971a11.736,11.736,0,0,1,12.27388-4.42967c4.29722,1.23217,8.50072,3.643,9.4232,5.40357,0.4806,0.91076,1.01978,37.48012,1.26007,84.89239,0.44545,88.29092.43374,88.51736-3.84712,99.96965-11.74293,31.38383-37.31056,54.05444-68.43325,60.67677-6.91825,1.47185-29.59531,1.67968-36.45489.33411Zm35.39988-27.08347a79.8551,79.8551,0,0,0,12.3888-4.76253c13.04522-6.3653,28.92592-25.41291,32.94886-39.517,1.14873-4.04029,1.532-9.00833,1.50628-19.67094,0-13.34982-.19925-14.70827-2.62684-21.16783-5.303-14.12554-15.7682-26.12-29.79107-34.14311-8.89332-5.08841-14.71676-7.03245-24.26767-8.101-14.74019-1.6491-29.25064,1.29656-40.90567,8.30415-11.1873,6.72606-25.04956,24.94859-28.99863,38.119-2.56352,8.55152-2.78746,26.61772-.44545,35.39586a62.08716,62.08716,0,0,0,11.58822,22.74717c7.8993,9.76312,23.58433,20.056,34.64035,22.7325,7.45036,1.80381,26.96721,1.84012,33.95692.07029Z" transform="translate(-111 -94)"/>
    <path id="path2892-1-6-9-8" class="cls-3" d="M219.52248,367.02732s-3.009-2.1542-3.63843-3.25849c-0.633-1.10411-.17582-64.746-0.17582-64.746-0.1172-39.35119-.715-66.78773-1.52148-69.95232a23.65586,23.65586,0,0,0-4.20229-8.3816c-5.7988-6.42629-9.93071-7.38856-31.72863-7.38856-20.32213,0-20.33854-.0025-23.52338-3.58008-5.63935-6.33847-3.18949-18.49243,4.45779-22.12259,1.97628-.94242,12.97019-1.79344,27.24154-2.12165,15.08718-.313,24.57482-1.11,25.6884-2.07121,3.29972-2.84764,4.39685-11.34068,4.40271-34.11718,0.007-24.81588.91429-28.86725,7.11983-31.81077,5.42722-2.57649,10.593-2.295,15.15162,1.94225,3.792,4.88326,3.34895,21.53414,3.50715,31.68431,0.30478,21.4778.82052,28.01427,2.3467,30.44409,1.90362,3.0308,6.96511,4.40946,28.08317,5.19376,21.11806,0.78413,25.89119-.27312,29.97972,4.14349,4.04521,4.89989,4.31131,14.75441.55094,20.24884-2.58351,3.77611-16.78216,2.16493-24.75886,2.34361-22.43908.50761-22.59031,0.50761-27.39156,4.34435-2.65617,2.10913-5.5069,5.44918-6.33914,7.42344-1.04325,2.48152-1.74653,24.43472-2.274,71.25335-0.422,37.21648-.45717,66.46811-1.28,67.8609-0.83224,1.39333-1.87317,1.729-4.19523,3.20036-5.86445,3.72549-12.93267,3.4919-17.46554-.56842Z" transform="translate(-111 -94)"/>
    <path id="path2913-6-2-6-4" class="cls-4" d="M595.14373,465.58128a19.03754,19.03754,0,0,1-9.19461-6.84429c-2.07479-2.867-2.19784-4.242-.504-5.4422,1.68442-1.18245,2.62335-.71974,4.7145,2.32412,4.94658,7.19128,16.56762,7.57691,21.53888.71616a7.7505,7.7505,0,0,0,1.736-5.62339v-3.22719l-1.98446,1.511a17.68876,17.68876,0,0,1-17.55457,1.80614c-6.43175-3.2068-10.72316-10.422-10.14168-17.05528,0.57441-6.52359,3.99835-11.48394,10.1441-14.69414,6.27355-3.2728,15.41307-1.56807,20.08653,3.755,4.21164,4.79544,4.50005,5.95374,4.71924,18.72155,0.11724,6.37854,0,12.4802-.15239,13.56016-0.53918,2.88717-5.58547,8.12386-9.41613,9.778a20.63226,20.63226,0,0,1-13.99354.71616Zm11.566-19.88718c5.01338-2.42553,7.90869-9.23191,6.17034-14.5024-2.989-9.0543-15.5279-11.29685-20.99031-3.755-3.06523,4.22684-3.547,8.83787-1.3656,13.054,2.88708,5.58064,10.40783,7.9992,16.18432,5.20324Zm-34.4622,6.02046c-1.1253-1.12056-1.18621-2.0197-1.18621-16.748,0-9.586.25792-16.00644,0.62127-16.71795a2.74309,2.74309,0,0,1,4.03931-.45592c0.52746,0.52281.715,5.17981,0.715,17.21912v16.50278l-1.504.68575c-1.2683.579-1.68326,0.50868-2.689-.50868Zm56.25542,0.252c-1.30112-.91434-1.31284-1.09713-1.31284-17.18692,0-17.13756.11724-17.69918,2.73469-17.69918,2.55771,0,2.66905.79235,2.50146,17.91238-0.15239,15.64353-.19925,16.30514-1.38081,17.08426-1.04321.6904-1.416,0.67395-2.53777-.10553Zm-447.17249-.35522c-0.926-.94367-1.0784-46.24842-0.15239-47.69093,0.45717-.71616,2.02319-0.89323,7.90167-0.88375,8.76208,0.0118,11.92931.90843,17.16309,4.841,9.21335,6.92514,12.73342,19.78488,8.15369,29.78731-2.12634,4.64287-7.44455,10.02283-12.2505,12.39041-3.72988,1.83654-4.28314,1.93259-11.98672,2.12-5.97811.156-8.26856-.00215-8.82187-0.56842Zm18.65765-6.65237a19.90575,19.90575,0,0,0,10.46055-13.95312c1.26947-6.51984-.844-12.45909-6.19851-17.39261-3.71347-3.42036-6.31571-4.39425-12.76977-4.7645L185.957,408.544v38.537l5.52331-.30478c4.36872-.252,6.14691-0.60956,8.5077-1.82116Zm31.04761,5.93246c-11.75581-5.71622-13.8001-21.76-3.78027-29.67928,7.13275-5.63787,16.37422-5.434,22.71927.50868a17.37,17.37,0,0,1,5.90429,10.63811c0.504,2.74033.45717,3.55236-.35164,4.74965l-0.94948,1.44609h-13.718c-7.54534,0-13.718.156-13.718,0.30478,0,1.21608,2.21658,4.151,4.25152,5.625,3.29851,2.38475,6.85377,2.84657,11.38776,1.477,4.15539-1.25864,5.5585-.79235,5.5585,1.85622,0,2.669-2.93868,4.044-9.21688,4.298-4.45547.19693-5.49756,0.0118-8.0986-1.24255ZM250.44,432.34785c0-1.64463-3.93266-6.63932-6.26885-7.95555-2.81089-1.58363-8.38227-1.85175-10.9259-.52388-2.79564,1.46219-6.6873,6.51358-6.6873,8.68119,0,0.40566,4.00416.62369,11.941,0.62369,9.78423,0,11.941-.156,11.941-0.82634v0.00089Zm16.83372,18.38779c-5.78941-2.88753-8.69523-8.46495-5.11775-9.82537,1.39605-.53211,1.86731-0.30478,4.364,2.0197,4.37927,4.09484,8.92967,4.91689,13.17887,2.37992,1.954-1.16742,3.76507-3.63338,3.38879-4.61765-0.15239-.45592-4.29253-1.72958-9.57205-2.994-5.28538-1.26294-9.89557-2.70473-10.71842-3.349-3.4767-2.735-3.51184-7.19128-.1172-11.1924,5.60537-6.54971,15.96749-7.56063,22.26326-2.17227,3.23756,2.77038,4.54691,5.2,3.67948,6.82014-0.99634,1.86284-3.826,1.56843-5.33462-.55447a12.579,12.579,0,0,0-8.30375-4.23167,11.3,11.3,0,0,0-3.84126.82294c-2.45688,1.049-5.45883,4.2272-5.03453,5.32433,0.19925,0.52746,3.80138,1.67521,9.599,3.06,10.18394,2.43072,11.92345,3.354,12.97841,6.87,0.93777,3.13579,0,5.95017-3.14147,8.72215-5.27953,4.76968-12.31614,5.88971-18.29192,2.91257Zm36.88858,0.10553c-11.74763-6.12223-13.51057-21.66435-3.37-29.68572a17.37374,17.37374,0,0,1,24.297,2.35452c3.588,4.07481,4.16124,6.5819,4.16124,18.14311v10.03249l-1.58363.40566c-2.04662.51226-3.44034-.40566-3.67948-2.37474-0.19925-1.64463-.93777-2.06137-1.63756-0.92131a12.82593,12.82593,0,0,1-3.47084,2.08516c-4.27849,1.99376-10.86732,1.97838-14.71909-.0118Zm13.20463-5.29947a12.02041,12.02041,0,0,0,2.21779-19.765,12.18062,12.18062,0,0,0-19.90248,6.95733,12.95529,12.95529,0,0,0,7.12568,13.34714,13.52368,13.52368,0,0,0,10.55668-.53927Zm20.36434,6.046c-0.52746-.52388-0.715-5.10845-0.715-16.89681,0-16.99644.1172-17.61315,2.69016-17.61315a2.56221,2.56221,0,0,1,2.689,2.76c0,1.301.1172,1.279,4.0288-.78073,3.80607-1.98893,4.28783-2.0916,8.60732-1.84728,5.21388,0.30478,7.66374,1.477,7.66374,3.68883,0,2.39012-1.32339,2.97857-4.806,2.142-6.202-1.48794-11.267.71616-13.9279,6.05444-1.48866,2.98877-1.56839,3.60262-1.56839,12.45909,0,9.77546-.25787,10.74936-2.69016,10.74936a3.07913,3.07913,0,0,1-1.96926-.71616Zm31.64425,0c-0.52746-.52388-0.715-5.10845-0.715-16.89681,0-16.99644.11724-17.61315,2.69016-17.61315a2.56343,2.56343,0,0,1,2.689,2.76c0,1.301.11724,1.279,4.02875-.78073,3.80607-1.98893,4.28783-2.0916,8.60732-1.84728,5.21388,0.30478,7.66374,1.477,7.66374,3.68883,0,2.39012-1.32455,2.97857-4.806,2.142-6.202-1.48794-11.267.71616-13.9279,6.05444-1.48866,2.98877-1.56834,3.60262-1.56834,12.45909,0,9.77546-.25792,10.74936-2.689,10.74936a3.07729,3.07729,0,0,1-1.97042-.71616Zm38.84492-.81006a17.497,17.497,0,0,1,.45717-31.74441c8.52764-3.84622,18.129-.40566,22.53048,8.11581a13.43028,13.43028,0,0,1,1.93876,8.0423c0,5.43308-1.4418,8.70283-5.40849,12.43387-3.55754,3.34416-7.11866,4.67846-12.479,4.67846a13.533,13.533,0,0,1-7.0202-1.52658Zm12.99478-5.19a13.58689,13.58689,0,0,0,4.45542-3.93279c1.57192-2.26313,1.80167-3.1002,1.80167-6.66507,0-3.562-.19925-4.40445-1.80167-6.66543a11.47185,11.47185,0,0,0-10.86732-5.13778c-3.03947.156-4.11434,0.53927-5.96993,2.0154a13.23657,13.23657,0,0,0-4.94774,9.94073,11.89293,11.89293,0,0,0,17.32956,10.44709v-0.00215Zm18.61307,6.00025c-0.93777-.93777-1.03149-45.34338-0.11724-47.08746a2.73969,2.73969,0,0,1,4.0393-.45592c0.52746,0.52871.715,6.18733,0.715,21.75431v21.03851l1.87786,0.19693c2.26348,0.19693,3.213,1.53123,2.675,3.67863-0.41031,1.52193-.56261,1.58363-4.44612,1.58363-2.35372,0-4.34882-.30478-4.76378-0.71616Zm16.02254-.45592c-0.844-1.577-.844-45.07169,0-46.64889a2.73969,2.73969,0,0,1,4.03931-.45592c0.52746,0.52871.715,6.18769,0.715,21.75414v21.03851l1.872,0.19693c2.29863,0.252,3.608,2.0154,2.866,3.91723-0.45717,1.21608-.91434,1.3436-4.69814,1.3436-3.51658,0-4.27263-.19693-4.79544-1.1558Zm25.35434-.0118c-6.2325-3.08517-9.7819-8.16715-10.31053-14.765a15.9994,15.9994,0,0,1,3.18131-11.65851c9.98-13.744,31.54927-6.50016,31.5364,10.59053-0.00233,3.32878-.30478,4.79544-1.56253,7.20255a20.83965,20.83965,0,0,1-9.03167,8.666c-3.48135,1.58346-10.58713,1.56163-13.81414-.04686Zm11.5038-5.11453a11.942,11.942,0,0,0,0-22.03405c-9.09964-3.80062-18.6213,4.79508-16.01789,14.46573,0.76195,2.82153,3.94209,6.37818,6.83732,7.6379a13.25107,13.25107,0,0,0,9.18057-.04686v-0.02272Zm36.70923,5.6275c-0.92605-.94367-1.07844-46.24913-0.15239-47.69183,0.45717-.71616,2.02435-0.892,7.90172-0.88375,8.762,0.0118,11.93047.90718,17.16313,4.84087,9.21339,6.92585,12.73346,19.78506,8.15489,29.788-2.12755,4.643-7.44455,10.02283-12.25045,12.38987-3.72988,1.83654-4.28318,1.939-11.98672,2.12-5.97816.156-8.26856-.00233-8.82187-0.56735Zm18.65761-6.65237a19.91037,19.91037,0,0,0,10.46059-13.95347c1.2683-6.52037-.844-12.45945-6.19851-17.393-3.71467-3.42-6.31692-4.39425-12.76977-4.76485l-5.52331-.30478v38.53737l5.52331-.30478c4.36877-.252,6.14691-0.60956,8.5077-1.82152v0.005Zm101.98693,6.0988a11.94889,11.94889,0,0,1-3.13561-3.32359c-1.137-1.91292-1.232-3.04457-1.232-13.36878V423.10879l-3.07-.19693c-2.56236-.156-3.15081-0.40566-3.56693-1.53749-0.73852-2.00879,1.21205-3.71941,4.24678-3.71941h2.39012v-5.85126c0-6.01151.45717-7.28411,2.47687-7.28411,2.04545,0,2.89764,2.33431,2.89764,7.89456v5.24062h3.2423q5.12182,0,5.11658,2.90756c0,1.795-1.32929,2.466-4.89623,2.466H651.072v10.747c0,9.9511.11724,10.83539,1.19327,11.94111a4.80787,4.80787,0,0,0,3.4708,1.1939c3.06523,0,4.45077,1.09123,4.19643,3.31376-0.19925,1.72958-.25792,1.76679-4.07919,1.91292-3.08517.10553-4.27263-.10553-5.78239-1.08068Zm23.85038-.30478a19.498,19.498,0,0,1-8.64837-9.08434,18.73888,18.73888,0,0,1,.30478-14.22892c5.555-10.96042,19.03393-13.64422,27.64125-5.50391,5.27014,4.98289,5.8703,6.80655,6.12116,18.56755,0.25792,11.12962.00939,11.96526-3.14142,11.658-1.65983-.156-1.86257-0.40566-2.03025-2.42052l-0.19925-2.24292-1.93876,1.477c-3.19651,2.44091-5.9981,3.30338-10.6915,3.30338-3.50129,0-4.99353-.30478-7.44455-1.52658Zm12.55058-4.67346a12.9288,12.9288,0,0,0,6.71426-7.98489c2.07-7.97183-3.36419-15.15542-11.519-15.23-4.15655-.04686-6.43765,1.04437-9.32473,4.41965-2.39012,2.796-3.03482,5.14225-2.614,9.52864,0.70328,7.26444,9.7455,12.272,16.74576,9.26857Zm19.63168,4.67829c-1.01978-2.24256-.94948-43.60253.11724-45.64655a2.56562,2.56562,0,0,1,4.23158-.88375c0.85567,0.85692.97291,3.37457,0.97291,21.82461v20.855h1.40075a3.8942,3.8942,0,0,1,2.48152,1.19837,1.9559,1.9559,0,0,1,.41031,2.684c-0.633,1.38152-.99634,1.49242-4.7755,1.49242-3.81081,0-4.14483-.10553-4.78954-1.52193Zm-133.8527-37.89919c-1.42534-1.42552-1.49572-2.56719-.25792-3.82583,1.89306-1.89342,4.65825-.40566,4.33827,2.30874-0.25792,2.32931-2.46631,3.14116-4.09439,1.511Zm56.13469,0.156a2.618,2.618,0,0,1,3.00316-4.28765c1.59884,0.85209,1.38671,3.40515-.35164,4.56721-1.10187.72671-1.42534,0.69631-2.628-.252Z" transform="translate(-111 -94)"/>
  </g>
</svg>
